<svg width="373" height="35" viewBox="0 0 373 35" fill="none" xmlns="http://www.w3.org/2000/svg">
<path d="M10.3223 17.4551H3.66016V13.957H10.3223C11.4824 13.957 12.4199 13.7695 13.1348 13.3945C13.8496 13.0195 14.3711 12.5039 14.6992 11.8477C15.0391 11.1797 15.209 10.418 15.209 9.5625C15.209 8.75391 15.0391 7.99805 14.6992 7.29492C14.3711 6.58008 13.8496 6.00586 13.1348 5.57227C12.4199 5.13867 11.4824 4.92188 10.3223 4.92188H5.01367V27H0.601562V1.40625H10.3223C12.3027 1.40625 13.9844 1.75781 15.3672 2.46094C16.7617 3.15234 17.8223 4.11328 18.5488 5.34375C19.2754 6.5625 19.6387 7.95703 19.6387 9.52734C19.6387 11.1797 19.2754 12.5977 18.5488 13.7812C17.8223 14.9648 16.7617 15.873 15.3672 16.5059C13.9844 17.1387 12.3027 17.4551 10.3223 17.4551ZM22.1172 17.7012V17.2969C22.1172 15.9258 22.3164 14.6543 22.7148 13.4824C23.1133 12.2988 23.6875 11.2734 24.4375 10.4062C25.1992 9.52734 26.125 8.84766 27.2148 8.36719C28.3164 7.875 29.5586 7.62891 30.9414 7.62891C32.3359 7.62891 33.5781 7.875 34.668 8.36719C35.7695 8.84766 36.7012 9.52734 37.4629 10.4062C38.2246 11.2734 38.8047 12.2988 39.2031 13.4824C39.6016 14.6543 39.8008 15.9258 39.8008 17.2969V17.7012C39.8008 19.0723 39.6016 20.3438 39.2031 21.5156C38.8047 22.6875 38.2246 23.7129 37.4629 24.5918C36.7012 25.459 35.7754 26.1387 34.6855 26.6309C33.5957 27.1113 32.3594 27.3516 30.9766 27.3516C29.582 27.3516 28.334 27.1113 27.2324 26.6309C26.1426 26.1387 25.2168 25.459 24.4551 24.5918C23.6934 23.7129 23.1133 22.6875 22.7148 21.5156C22.3164 20.3438 22.1172 19.0723 22.1172 17.7012ZM26.3535 17.2969V17.7012C26.3535 18.5566 26.4414 19.3652 26.6172 20.127C26.793 20.8887 27.0684 21.5566 27.4434 22.1309C27.8184 22.7051 28.2988 23.1562 28.8848 23.4844C29.4707 23.8125 30.168 23.9766 30.9766 23.9766C31.7617 23.9766 32.4414 23.8125 33.0156 23.4844C33.6016 23.1562 34.082 22.7051 34.457 22.1309C34.832 21.5566 35.1074 20.8887 35.2832 20.127C35.4707 19.3652 35.5645 18.5566 35.5645 17.7012V17.2969C35.5645 16.4531 35.4707 15.6562 35.2832 14.9062C35.1074 14.1445 34.8262 13.4707 34.4395 12.8848C34.0645 12.2988 33.584 11.8418 32.998 11.5137C32.4238 11.1738 31.7383 11.0039 30.9414 11.0039C30.1445 11.0039 29.4531 11.1738 28.8672 11.5137C28.293 11.8418 27.8184 12.2988 27.4434 12.8848C27.0684 13.4707 26.793 14.1445 26.6172 14.9062C26.4414 15.6562 26.3535 16.4531 26.3535 17.2969ZM47.8867 0V27H43.6328V0H47.8867ZM63.25 23.1855V14.1152C63.25 13.4355 63.127 12.8496 62.8809 12.3574C62.6348 11.8652 62.2598 11.4844 61.7559 11.2148C61.2637 10.9453 60.6426 10.8105 59.8926 10.8105C59.2012 10.8105 58.6035 10.9277 58.0996 11.1621C57.5957 11.3965 57.2031 11.7129 56.9219 12.1113C56.6406 12.5098 56.5 12.9609 56.5 13.4648H52.2812C52.2812 12.7148 52.4629 11.9883 52.8262 11.2852C53.1895 10.582 53.7168 9.95508 54.4082 9.4043C55.0996 8.85352 55.9258 8.41992 56.8867 8.10352C57.8477 7.78711 58.9258 7.62891 60.1211 7.62891C61.5508 7.62891 62.8164 7.86914 63.918 8.34961C65.0312 8.83008 65.9043 9.55664 66.5371 10.5293C67.1816 11.4902 67.5039 12.6973 67.5039 14.1504V22.6055C67.5039 23.4727 67.5625 24.252 67.6797 24.9434C67.8086 25.623 67.9902 26.2148 68.2246 26.7188V27H63.8828C63.6836 26.543 63.5254 25.9629 63.4082 25.2598C63.3027 24.5449 63.25 23.8535 63.25 23.1855ZM63.8652 15.4336L63.9004 18.0527H60.8594C60.0742 18.0527 59.3828 18.1289 58.7852 18.2812C58.1875 18.4219 57.6895 18.6328 57.291 18.9141C56.8926 19.1953 56.5938 19.5352 56.3945 19.9336C56.1953 20.332 56.0957 20.7832 56.0957 21.2871C56.0957 21.791 56.2129 22.2539 56.4473 22.6758C56.6816 23.0859 57.0215 23.4082 57.4668 23.6426C57.9238 23.877 58.4746 23.9941 59.1191 23.9941C59.9863 23.9941 60.7422 23.8184 61.3867 23.4668C62.043 23.1035 62.5586 22.6641 62.9336 22.1484C63.3086 21.6211 63.5078 21.123 63.5312 20.6543L64.9023 22.5352C64.7617 23.0156 64.5215 23.5312 64.1816 24.082C63.8418 24.6328 63.3965 25.1602 62.8457 25.6641C62.3066 26.1562 61.6562 26.5605 60.8945 26.877C60.1445 27.1934 59.2773 27.3516 58.293 27.3516C57.0508 27.3516 55.9434 27.1055 54.9707 26.6133C53.998 26.1094 53.2363 25.4355 52.6855 24.5918C52.1348 23.7363 51.8594 22.7695 51.8594 21.6914C51.8594 20.6836 52.0469 19.793 52.4219 19.0195C52.8086 18.2344 53.3711 17.5781 54.1094 17.0508C54.8594 16.5234 55.7734 16.125 56.8516 15.8555C57.9297 15.5742 59.1602 15.4336 60.543 15.4336H63.8652ZM80.6523 7.98047V11.0742H69.9297V7.98047H80.6523ZM73.0234 3.32227H77.2598V21.7441C77.2598 22.3301 77.3418 22.7812 77.5059 23.0977C77.6816 23.4023 77.9219 23.6074 78.2266 23.7129C78.5312 23.8184 78.8887 23.8711 79.2988 23.8711C79.5918 23.8711 79.873 23.8535 80.1426 23.8184C80.4121 23.7832 80.6289 23.748 80.793 23.7129L80.8105 26.9473C80.459 27.0527 80.0488 27.1465 79.5801 27.2285C79.123 27.3105 78.5957 27.3516 77.998 27.3516C77.0254 27.3516 76.1641 27.1816 75.4141 26.8418C74.6641 26.4902 74.0781 25.9219 73.6562 25.1367C73.2344 24.3516 73.0234 23.3086 73.0234 22.0078V3.32227ZM92.6406 7.98047V11.0742H81.918V7.98047H92.6406ZM85.0117 3.32227H89.248V21.7441C89.248 22.3301 89.3301 22.7812 89.4941 23.0977C89.6699 23.4023 89.9102 23.6074 90.2148 23.7129C90.5195 23.8184 90.877 23.8711 91.2871 23.8711C91.5801 23.8711 91.8613 23.8535 92.1309 23.8184C92.4004 23.7832 92.6172 23.748 92.7812 23.7129L92.7988 26.9473C92.4473 27.0527 92.0371 27.1465 91.5684 27.2285C91.1113 27.3105 90.584 27.3516 89.9863 27.3516C89.0137 27.3516 88.1523 27.1816 87.4023 26.8418C86.6523 26.4902 86.0664 25.9219 85.6445 25.1367C85.2227 24.3516 85.0117 23.3086 85.0117 22.0078V3.32227ZM94.6797 17.7012V17.2969C94.6797 15.9258 94.8789 14.6543 95.2773 13.4824C95.6758 12.2988 96.25 11.2734 97 10.4062C97.7617 9.52734 98.6875 8.84766 99.7773 8.36719C100.879 7.875 102.121 7.62891 103.504 7.62891C104.898 7.62891 106.141 7.875 107.23 8.36719C108.332 8.84766 109.264 9.52734 110.025 10.4062C110.787 11.2734 111.367 12.2988 111.766 13.4824C112.164 14.6543 112.363 15.9258 112.363 17.2969V17.7012C112.363 19.0723 112.164 20.3438 111.766 21.5156C111.367 22.6875 110.787 23.7129 110.025 24.5918C109.264 25.459 108.338 26.1387 107.248 26.6309C106.158 27.1113 104.922 27.3516 103.539 27.3516C102.145 27.3516 100.896 27.1113 99.7949 26.6309C98.7051 26.1387 97.7793 25.459 97.0176 24.5918C96.2559 23.7129 95.6758 22.6875 95.2773 21.5156C94.8789 20.3438 94.6797 19.0723 94.6797 17.7012ZM98.916 17.2969V17.7012C98.916 18.5566 99.0039 19.3652 99.1797 20.127C99.3555 20.8887 99.6309 21.5566 100.006 22.1309C100.381 22.7051 100.861 23.1562 101.447 23.4844C102.033 23.8125 102.73 23.9766 103.539 23.9766C104.324 23.9766 105.004 23.8125 105.578 23.4844C106.164 23.1562 106.645 22.7051 107.02 22.1309C107.395 21.5566 107.67 20.8887 107.846 20.127C108.033 19.3652 108.127 18.5566 108.127 17.7012V17.2969C108.127 16.4531 108.033 15.6562 107.846 14.9062C107.67 14.1445 107.389 13.4707 107.002 12.8848C106.627 12.2988 106.146 11.8418 105.561 11.5137C104.986 11.1738 104.301 11.0039 103.504 11.0039C102.707 11.0039 102.016 11.1738 101.43 11.5137C100.855 11.8418 100.381 12.2988 100.006 12.8848C99.6309 13.4707 99.3555 14.1445 99.1797 14.9062C99.0039 15.6562 98.916 16.4531 98.916 17.2969Z" fill="#FAF8F9"/>
<path d="M115.949 24.5566C115.949 23.8066 116.207 23.1797 116.723 22.6758C117.25 22.1719 117.947 21.9199 118.814 21.9199C119.682 21.9199 120.373 22.1719 120.889 22.6758C121.416 23.1797 121.68 23.8066 121.68 24.5566C121.68 25.3066 121.416 25.9336 120.889 26.4375C120.373 26.9414 119.682 27.1934 118.814 27.1934C117.947 27.1934 117.25 26.9414 116.723 26.4375C116.207 25.9336 115.949 25.3066 115.949 24.5566ZM135.461 7.98047V11.5664H124.387V7.98047H135.461ZM127.129 3.28711H132.191V21.2695C132.191 21.8203 132.262 22.2422 132.402 22.5352C132.555 22.8281 132.777 23.0332 133.07 23.1504C133.363 23.2559 133.732 23.3086 134.178 23.3086C134.494 23.3086 134.775 23.2969 135.021 23.2734C135.279 23.2383 135.496 23.2031 135.672 23.168L135.689 26.8945C135.256 27.0352 134.787 27.1465 134.283 27.2285C133.779 27.3105 133.223 27.3516 132.613 27.3516C131.5 27.3516 130.527 27.1699 129.695 26.8066C128.875 26.4316 128.242 25.834 127.797 25.0137C127.352 24.1934 127.129 23.1152 127.129 21.7793V3.28711ZM147.098 27.3516C145.621 27.3516 144.297 27.1172 143.125 26.6484C141.953 26.168 140.957 25.5059 140.137 24.6621C139.328 23.8184 138.707 22.8398 138.273 21.7266C137.84 20.6016 137.623 19.4062 137.623 18.1406V17.4375C137.623 15.9961 137.828 14.6777 138.238 13.4824C138.648 12.2871 139.234 11.25 139.996 10.3711C140.77 9.49219 141.707 8.81836 142.809 8.34961C143.91 7.86914 145.152 7.62891 146.535 7.62891C147.883 7.62891 149.078 7.85156 150.121 8.29688C151.164 8.74219 152.037 9.375 152.74 10.1953C153.455 11.0156 153.994 12 154.357 13.1484C154.721 14.2852 154.902 15.5508 154.902 16.9453V19.0547H139.785V15.6797H149.928V15.293C149.928 14.5898 149.799 13.9629 149.541 13.4121C149.295 12.8496 148.92 12.4043 148.416 12.0762C147.912 11.748 147.268 11.584 146.482 11.584C145.814 11.584 145.24 11.7305 144.76 12.0234C144.279 12.3164 143.887 12.7266 143.582 13.2539C143.289 13.7812 143.066 14.4023 142.914 15.1172C142.773 15.8203 142.703 16.5938 142.703 17.4375V18.1406C142.703 18.9023 142.809 19.6055 143.02 20.25C143.242 20.8945 143.553 21.4512 143.951 21.9199C144.361 22.3887 144.854 22.752 145.428 23.0098C146.014 23.2676 146.676 23.3965 147.414 23.3965C148.328 23.3965 149.178 23.2207 149.963 22.8691C150.76 22.5059 151.445 21.9609 152.02 21.2344L154.48 23.9062C154.082 24.4805 153.537 25.0312 152.846 25.5586C152.166 26.0859 151.346 26.5195 150.385 26.8594C149.424 27.1875 148.328 27.3516 147.098 27.3516ZM165.643 23.3965C166.264 23.3965 166.814 23.2793 167.295 23.0449C167.775 22.7988 168.15 22.459 168.42 22.0254C168.701 21.5801 168.848 21.0586 168.859 20.4609H173.623C173.611 21.7969 173.254 22.9863 172.551 24.0293C171.848 25.0605 170.904 25.875 169.721 26.4727C168.537 27.0586 167.213 27.3516 165.748 27.3516C164.271 27.3516 162.982 27.1055 161.881 26.6133C160.791 26.1211 159.883 25.4414 159.156 24.5742C158.43 23.6953 157.885 22.6758 157.521 21.5156C157.158 20.3438 156.977 19.0898 156.977 17.7539V17.2441C156.977 15.8965 157.158 14.6426 157.521 13.4824C157.885 12.3105 158.43 11.291 159.156 10.4238C159.883 9.54492 160.791 8.85938 161.881 8.36719C162.971 7.875 164.248 7.62891 165.713 7.62891C167.271 7.62891 168.637 7.92773 169.809 8.52539C170.992 9.12305 171.918 9.97852 172.586 11.0918C173.266 12.1934 173.611 13.5 173.623 15.0117H168.859C168.848 14.3789 168.713 13.8047 168.455 13.2891C168.209 12.7734 167.846 12.3633 167.365 12.0586C166.896 11.7422 166.316 11.584 165.625 11.584C164.887 11.584 164.283 11.7422 163.814 12.0586C163.346 12.3633 162.982 12.7852 162.725 13.3242C162.467 13.8516 162.285 14.4551 162.18 15.1348C162.086 15.8027 162.039 16.5059 162.039 17.2441V17.7539C162.039 18.4922 162.086 19.2012 162.18 19.8809C162.273 20.5605 162.449 21.1641 162.707 21.6914C162.977 22.2188 163.346 22.6348 163.814 22.9395C164.283 23.2441 164.893 23.3965 165.643 23.3965Z" fill="#30FDFF"/>
<path d="M189.637 1.40625V31.7461H186.613V1.40625H189.637Z" fill="url(#paint0_linear_913_215)"/>
<path d="M224.898 13.6055V14.8184C224.898 16.7637 224.635 18.5098 224.107 20.0566C223.58 21.6035 222.836 22.9219 221.875 24.0117C220.914 25.0898 219.766 25.916 218.43 26.4902C217.105 27.0645 215.635 27.3516 214.018 27.3516C212.412 27.3516 210.941 27.0645 209.605 26.4902C208.281 25.916 207.133 25.0898 206.16 24.0117C205.188 22.9219 204.432 21.6035 203.893 20.0566C203.365 18.5098 203.102 16.7637 203.102 14.8184V13.6055C203.102 11.6484 203.365 9.90234 203.893 8.36719C204.42 6.82031 205.164 5.50195 206.125 4.41211C207.098 3.32227 208.246 2.49023 209.57 1.91602C210.906 1.3418 212.377 1.05469 213.982 1.05469C215.6 1.05469 217.07 1.3418 218.395 1.91602C219.73 2.49023 220.879 3.32227 221.84 4.41211C222.812 5.50195 223.562 6.82031 224.09 8.36719C224.629 9.90234 224.898 11.6484 224.898 13.6055ZM219.572 14.8184V13.5703C219.572 12.2109 219.449 11.0156 219.203 9.98438C218.957 8.95312 218.594 8.08594 218.113 7.38281C217.633 6.67969 217.047 6.15234 216.355 5.80078C215.664 5.4375 214.873 5.25586 213.982 5.25586C213.092 5.25586 212.301 5.4375 211.609 5.80078C210.93 6.15234 210.35 6.67969 209.869 7.38281C209.4 8.08594 209.043 8.95312 208.797 9.98438C208.551 11.0156 208.428 12.2109 208.428 13.5703V14.8184C208.428 16.166 208.551 17.3613 208.797 18.4043C209.043 19.4355 209.406 20.3086 209.887 21.0234C210.367 21.7266 210.953 22.2598 211.645 22.623C212.336 22.9863 213.127 23.168 214.018 23.168C214.908 23.168 215.699 22.9863 216.391 22.623C217.082 22.2598 217.662 21.7266 218.131 21.0234C218.6 20.3086 218.957 19.4355 219.203 18.4043C219.449 17.3613 219.572 16.166 219.572 14.8184ZM233.441 11.6367V34.3125H228.379V7.98047H233.072L233.441 11.6367ZM245.482 17.2793V17.6484C245.482 19.0312 245.318 20.3145 244.99 21.498C244.674 22.6816 244.205 23.7129 243.584 24.5918C242.963 25.459 242.189 26.1387 241.264 26.6309C240.35 27.1113 239.295 27.3516 238.1 27.3516C236.939 27.3516 235.932 27.1172 235.076 26.6484C234.221 26.1797 233.5 25.5234 232.914 24.6797C232.34 23.8242 231.877 22.834 231.525 21.709C231.174 20.584 230.904 19.377 230.717 18.0879V17.1211C230.904 15.7383 231.174 14.4727 231.525 13.3242C231.877 12.1641 232.34 11.1621 232.914 10.3184C233.5 9.46289 234.215 8.80078 235.059 8.33203C235.914 7.86328 236.916 7.62891 238.064 7.62891C239.271 7.62891 240.332 7.85742 241.246 8.31445C242.172 8.77148 242.945 9.42773 243.566 10.2832C244.199 11.1387 244.674 12.1582 244.99 13.3418C245.318 14.5254 245.482 15.8379 245.482 17.2793ZM240.402 17.6484V17.2793C240.402 16.4707 240.332 15.7266 240.191 15.0469C240.062 14.3555 239.852 13.752 239.559 13.2363C239.277 12.7207 238.902 12.3223 238.434 12.041C237.977 11.748 237.42 11.6016 236.764 11.6016C236.072 11.6016 235.48 11.7129 234.988 11.9355C234.508 12.1582 234.115 12.4805 233.811 12.9023C233.506 13.3242 233.277 13.8281 233.125 14.4141C232.973 15 232.879 15.6621 232.844 16.4004V18.8438C232.902 19.7109 233.066 20.4902 233.336 21.1816C233.605 21.8613 234.021 22.4004 234.584 22.7988C235.146 23.1973 235.885 23.3965 236.799 23.3965C237.467 23.3965 238.029 23.25 238.486 22.957C238.943 22.6523 239.312 22.2363 239.594 21.709C239.887 21.1816 240.092 20.5723 240.209 19.8809C240.338 19.1895 240.402 18.4453 240.402 17.6484ZM257.383 27.3516C255.906 27.3516 254.582 27.1172 253.41 26.6484C252.238 26.168 251.242 25.5059 250.422 24.6621C249.613 23.8184 248.992 22.8398 248.559 21.7266C248.125 20.6016 247.908 19.4062 247.908 18.1406V17.4375C247.908 15.9961 248.113 14.6777 248.523 13.4824C248.934 12.2871 249.52 11.25 250.281 10.3711C251.055 9.49219 251.992 8.81836 253.094 8.34961C254.195 7.86914 255.438 7.62891 256.82 7.62891C258.168 7.62891 259.363 7.85156 260.406 8.29688C261.449 8.74219 262.322 9.375 263.025 10.1953C263.74 11.0156 264.279 12 264.643 13.1484C265.006 14.2852 265.188 15.5508 265.188 16.9453V19.0547H250.07V15.6797H260.213V15.293C260.213 14.5898 260.084 13.9629 259.826 13.4121C259.58 12.8496 259.205 12.4043 258.701 12.0762C258.197 11.748 257.553 11.584 256.768 11.584C256.1 11.584 255.525 11.7305 255.045 12.0234C254.564 12.3164 254.172 12.7266 253.867 13.2539C253.574 13.7812 253.352 14.4023 253.199 15.1172C253.059 15.8203 252.988 16.5938 252.988 17.4375V18.1406C252.988 18.9023 253.094 19.6055 253.305 20.25C253.527 20.8945 253.838 21.4512 254.236 21.9199C254.646 22.3887 255.139 22.752 255.713 23.0098C256.299 23.2676 256.961 23.3965 257.699 23.3965C258.613 23.3965 259.463 23.2207 260.248 22.8691C261.045 22.5059 261.73 21.9609 262.305 21.2344L264.766 23.9062C264.367 24.4805 263.822 25.0312 263.131 25.5586C262.451 26.0859 261.631 26.5195 260.67 26.8594C259.709 27.1875 258.613 27.3516 257.383 27.3516ZM273.027 12.041V27H267.965V7.98047H272.711L273.027 12.041ZM272.289 16.8223H270.918C270.918 15.416 271.1 14.1504 271.463 13.0254C271.826 11.8887 272.336 10.9219 272.992 10.125C273.648 9.31641 274.428 8.70117 275.33 8.2793C276.244 7.8457 277.264 7.62891 278.389 7.62891C279.279 7.62891 280.094 7.75781 280.832 8.01562C281.57 8.27344 282.203 8.68359 282.73 9.24609C283.27 9.80859 283.68 10.5527 283.961 11.4785C284.254 12.4043 284.4 13.5352 284.4 14.8711V27H279.303V14.8535C279.303 14.0098 279.186 13.3535 278.951 12.8848C278.717 12.416 278.371 12.0879 277.914 11.9004C277.469 11.7012 276.918 11.6016 276.262 11.6016C275.582 11.6016 274.99 11.7363 274.486 12.0059C273.994 12.2754 273.584 12.6504 273.256 13.1309C272.939 13.5996 272.699 14.1504 272.535 14.7832C272.371 15.416 272.289 16.0957 272.289 16.8223ZM305.389 27H299.816L299.852 22.8867H305.389C306.771 22.8867 307.938 22.5762 308.887 21.9551C309.836 21.3223 310.551 20.4023 311.031 19.1953C311.523 17.9883 311.77 16.5293 311.77 14.8184V13.5703C311.77 12.2578 311.629 11.1035 311.348 10.1074C311.078 9.11133 310.674 8.27344 310.135 7.59375C309.596 6.91406 308.934 6.4043 308.148 6.06445C307.363 5.71289 306.461 5.53711 305.441 5.53711H299.711V1.40625H305.441C307.152 1.40625 308.717 1.69922 310.135 2.28516C311.564 2.85938 312.801 3.68555 313.844 4.76367C314.887 5.8418 315.689 7.13086 316.252 8.63086C316.826 10.1191 317.113 11.7773 317.113 13.6055V14.8184C317.113 16.6348 316.826 18.293 316.252 19.793C315.689 21.293 314.887 22.582 313.844 23.6602C312.812 24.7266 311.576 25.5527 310.135 26.1387C308.705 26.7129 307.123 27 305.389 27ZM302.805 1.40625V27H297.531V1.40625H302.805ZM319.82 17.6836V17.3145C319.82 15.9199 320.02 14.6367 320.418 13.4648C320.816 12.2812 321.396 11.2559 322.158 10.3887C322.92 9.52148 323.857 8.84766 324.971 8.36719C326.084 7.875 327.361 7.62891 328.803 7.62891C330.244 7.62891 331.527 7.875 332.652 8.36719C333.777 8.84766 334.721 9.52148 335.482 10.3887C336.256 11.2559 336.842 12.2812 337.24 13.4648C337.639 14.6367 337.838 15.9199 337.838 17.3145V17.6836C337.838 19.0664 337.639 20.3496 337.24 21.5332C336.842 22.7051 336.256 23.7305 335.482 24.6094C334.721 25.4766 333.783 26.1504 332.67 26.6309C331.557 27.1113 330.279 27.3516 328.838 27.3516C327.396 27.3516 326.113 27.1113 324.988 26.6309C323.875 26.1504 322.932 25.4766 322.158 24.6094C321.396 23.7305 320.816 22.7051 320.418 21.5332C320.02 20.3496 319.82 19.0664 319.82 17.6836ZM324.883 17.3145V17.6836C324.883 18.4805 324.953 19.2246 325.094 19.916C325.234 20.6074 325.457 21.2168 325.762 21.7441C326.078 22.2598 326.488 22.6641 326.992 22.957C327.496 23.25 328.111 23.3965 328.838 23.3965C329.541 23.3965 330.145 23.25 330.648 22.957C331.152 22.6641 331.557 22.2598 331.861 21.7441C332.166 21.2168 332.389 20.6074 332.529 19.916C332.682 19.2246 332.758 18.4805 332.758 17.6836V17.3145C332.758 16.541 332.682 15.8145 332.529 15.1348C332.389 14.4434 332.16 13.834 331.844 13.3066C331.539 12.7676 331.135 12.3457 330.631 12.041C330.127 11.7363 329.518 11.584 328.803 11.584C328.088 11.584 327.479 11.7363 326.975 12.041C326.482 12.3457 326.078 12.7676 325.762 13.3066C325.457 13.834 325.234 14.4434 325.094 15.1348C324.953 15.8145 324.883 16.541 324.883 17.3145ZM340.141 17.6836V17.3145C340.141 15.9199 340.34 14.6367 340.738 13.4648C341.137 12.2812 341.717 11.2559 342.479 10.3887C343.24 9.52148 344.178 8.84766 345.291 8.36719C346.404 7.875 347.682 7.62891 349.123 7.62891C350.564 7.62891 351.848 7.875 352.973 8.36719C354.098 8.84766 355.041 9.52148 355.803 10.3887C356.576 11.2559 357.162 12.2812 357.561 13.4648C357.959 14.6367 358.158 15.9199 358.158 17.3145V17.6836C358.158 19.0664 357.959 20.3496 357.561 21.5332C357.162 22.7051 356.576 23.7305 355.803 24.6094C355.041 25.4766 354.104 26.1504 352.99 26.6309C351.877 27.1113 350.6 27.3516 349.158 27.3516C347.717 27.3516 346.434 27.1113 345.309 26.6309C344.195 26.1504 343.252 25.4766 342.479 24.6094C341.717 23.7305 341.137 22.7051 340.738 21.5332C340.34 20.3496 340.141 19.0664 340.141 17.6836ZM345.203 17.3145V17.6836C345.203 18.4805 345.273 19.2246 345.414 19.916C345.555 20.6074 345.777 21.2168 346.082 21.7441C346.398 22.2598 346.809 22.6641 347.312 22.957C347.816 23.25 348.432 23.3965 349.158 23.3965C349.861 23.3965 350.465 23.25 350.969 22.957C351.473 22.6641 351.877 22.2598 352.182 21.7441C352.486 21.2168 352.709 20.6074 352.85 19.916C353.002 19.2246 353.078 18.4805 353.078 17.6836V17.3145C353.078 16.541 353.002 15.8145 352.85 15.1348C352.709 14.4434 352.48 13.834 352.164 13.3066C351.859 12.7676 351.455 12.3457 350.951 12.041C350.447 11.7363 349.838 11.584 349.123 11.584C348.408 11.584 347.799 11.7363 347.295 12.041C346.803 12.3457 346.398 12.7676 346.082 13.3066C345.777 13.834 345.555 14.4434 345.414 15.1348C345.273 15.8145 345.203 16.541 345.203 17.3145ZM366.332 12.1289V27H361.27V7.98047H366.033L366.332 12.1289ZM372.062 7.85742L371.975 12.5508C371.729 12.5156 371.43 12.4863 371.078 12.4629C370.738 12.4277 370.428 12.4102 370.146 12.4102C369.432 12.4102 368.811 12.5039 368.283 12.6914C367.768 12.8672 367.334 13.1309 366.982 13.4824C366.643 13.834 366.385 14.2617 366.209 14.7656C366.045 15.2695 365.951 15.8438 365.928 16.4883L364.908 16.1719C364.908 14.9414 365.031 13.8105 365.277 12.7793C365.523 11.7363 365.881 10.8281 366.35 10.0547C366.83 9.28125 367.416 8.68359 368.107 8.26172C368.799 7.83984 369.59 7.62891 370.48 7.62891C370.762 7.62891 371.049 7.65234 371.342 7.69922C371.635 7.73438 371.875 7.78711 372.062 7.85742Z" fill="#F8F6F7"/>
<defs>
<linearGradient id="paint0_linear_913_215" x1="197.5" y1="-0.499985" x2="179.5" y2="31.5" gradientUnits="userSpaceOnUse">
<stop stop-color="#30FDFF"/>
<stop offset="0.753476" stop-color="white"/>
</linearGradient>
</defs>
</svg>
